<svg id="Component_51_1" data-name="Component 51 – 1" xmlns="http://www.w3.org/2000/svg" width="24" height="24" viewBox="0 0 24 24">
  <path id="u_trash-alt" d="M10,18a1,1,0,0,0,1-1V11a1,1,0,0,0-2,0v6a1,1,0,0,0,1,1ZM20,6H16V5a3,3,0,0,0-3-3H11A3,3,0,0,0,8,5V6H4A1,1,0,1,0,4,8H5V19a3,3,0,0,0,3,3h8a3,3,0,0,0,3-3V8h1a1,1,0,0,0,0-2ZM10,5a1,1,0,0,1,1-1h2a1,1,0,0,1,1,1V6H10Zm7,14a1,1,0,0,1-1,1H8a1,1,0,0,1-1-1V8H17Zm-3-1a1,1,0,0,0,1-1V11a1,1,0,0,0-2,0v6a1,1,0,0,0,1,1Z" fill="#ce2828"/>
  <rect id="Rectangle_530" data-name="Rectangle 530" width="24" height="24" fill="none"/>
</svg>
