<svg id="Component_50_1" data-name="Component 50 – 1" xmlns="http://www.w3.org/2000/svg" width="24" height="24" viewBox="0 0 24 24">
  <path id="u_edit-alt" d="M5,18H9.24a1,1,0,0,0,.71-.29l6.92-6.93L19.71,8a1,1,0,0,0,0-1.42L15.47,2.29a1,1,0,0,0-1.42,0L11.23,5.12,4.29,12.05a1,1,0,0,0-.29.71V17a1,1,0,0,0,1,1ZM14.76,4.41l2.83,2.83L16.17,8.66,13.34,5.83ZM6,13.17l5.93-5.93,2.83,2.83L8.83,16H6ZM21,20H3a1,1,0,0,0,0,2H21a1,1,0,0,0,0-2Z" transform="translate(0 0.006)" fill="#224442"/>
  <rect id="Rectangle_529" data-name="Rectangle 529" width="24" height="24" fill="none"/>
</svg>
